<svg aria-hidden="true" xmlns="http://www.w3.org/2000/svg" width="24" height="24" viewBox="0 0 24 24" fill="none"><path d="M4.98 9.69C2.99 8.89 2 8.49 2 8C2 7.51 2.99 7.11 4.98 6.31L7.79 5.19C9.77 4.4 10.77 4 12 4C13.23 4 14.23 4.4 16.21 5.19L19.02 6.31C21.01 7.11 22 7.51 22 8C22 8.49 21.01 8.89 19.02 9.69L16.21 10.81C14.23 11.6 13.23 12 12 12C10.77 12 9.77 11.6 7.79 10.81L4.98 9.69Z" fill="currentColor"/><path fill-rule="evenodd" clip-rule="evenodd" d="M2 8C2 8.49 2.99 8.89 4.98 9.69L7.79 10.81C9.77 11.6 10.77 12 12 12C13.23 12 14.23 11.6 16.21 10.81L19.02 9.69C21.01 8.89 22 8.49 22 8C22 7.51 21.01 7.11 19.02 6.31L16.21 5.19C14.23 4.4 13.23 4 12 4C10.77 4 9.77 4.4 7.79 5.19L4.98 6.31C2.99 7.11 2 7.51 2 8Z" fill="currentColor"/><path d="M19.02 13.69L16.21 14.81C14.23 15.6 13.23 16 12 16C10.77 16 9.77 15.6 7.79 14.81L4.98 13.69C2.99 12.89 2 12.49 2 12C2 11.56 2.81 11.19 4.42 10.54L7.56 11.8C9.41 12.54 10.57 13 12 13C13.43 13 14.59 12.54 16.44 11.8L19.58 10.54C21.19 11.19 22 11.56 22 12C22 12.49 21.01 12.89 19.02 13.69Z" fill="currentColor"/><path d="M19.02 17.68L16.21 18.81C14.23 19.6 13.23 20 12 20C10.77 20 9.77 19.6 7.79 18.81L4.98 17.68C2.99 16.89 2 16.49 2 16C2 15.55 2.81 15.19 4.42 14.54L7.56 15.79C9.41 16.53 10.57 17 12 17C13.43 17 14.59 16.53 16.44 15.79L19.58 14.54C21.19 15.19 22 15.55 22 16C22 16.49 21.01 16.89 19.02 17.68Z" fill="currentColor"/></svg>
