<svg aria-hidden="true" xmlns="http://www.w3.org/2000/svg" width="24" height="24" viewBox="0 0 24 24" fill="none"><path fill-rule="evenodd" clip-rule="evenodd" d="M3 10.42C3 7.22 3 5.62 3.38 5.08C3.76 4.54 5.26 4.03 8.26 3L8.84 2.8C10.4 2.27 11.19 2 12 2C12.81 2 13.6 2.27 15.16 2.8L15.74 3C18.74 4.03 20.25 4.54 20.62 5.08C21 5.62 21 7.22 21 10.42V11.99C21 17.63 16.76 20.37 14.1 21.53C13.38 21.84 13.02 22 12 22C10.98 22 10.62 21.84 9.9 21.53C7.24 20.37 3 17.63 3 11.99V10.42ZM12 7.25C12.41 7.25 12.75 7.59 12.75 8V12C12.75 12.41 12.41 12.75 12 12.75C11.59 12.75 11.25 12.41 11.25 12V8C11.25 7.59 11.59 7.25 12 7.25ZM12 16C12.55 16 13 15.55 13 15C13 14.45 12.55 14 12 14C11.45 14 11 14.45 11 15C11 15.55 11.45 16 12 16Z" fill="currentColor"/></svg>
