<?xml version="1.0" encoding="utf-8"?>
<svg xmlns="http://www.w3.org/2000/svg" viewBox="0 0 100 100" width="100%" height="100%">
  <defs>
    <clipPath id="x-clip-icon">
      <rect x="40" y="14" width="50" height="32" />
    </clipPath>
  </defs>
  <rect width="100" height="100" rx="26" ry="26" fill="#3B82F6" />
  <g transform="translate(4.5, 29.0) scale(0.7)">
    <!-- Letter 'a' -->
    <path d="M 30 14 A 16 16 0 1 0 30 46 A 16 16 0 0 0 30 14 M 30 24 A 6 6 0 1 1 30 36 A 6 6 0 0 1 30 24" fill="white" fill-rule="evenodd" />
    <rect x="36" y="14" width="10" height="32" fill="white" />
    
    <!-- Letter 'x' -->
    <g clip-path="url(#x-clip-icon)" stroke="white" stroke-width="10" stroke-linecap="butt">
      <line x1="53" y1="14" x2="77" y2="46" />
      <line x1="77" y1="14" x2="53" y2="46" />
    </g>
    
    <!-- Letter 'o' -->
    <path d="M 100 14 A 16 16 0 1 0 100 46 A 16 16 0 0 0 100 14 M 100 24 A 6 6 0 1 1 100 36 A 6 6 0 0 1 100 24" fill="white" fill-rule="evenodd" />
  </g>
</svg>
