<svg aria-hidden="true" xmlns="http://www.w3.org/2000/svg" width="24" height="24" viewBox="0 0 24 24" fill="none"><path d="M12 17.75C12.41 17.75 12.75 17.41 12.75 17V11C12.75 10.59 12.41 10.25 12 10.25C11.59 10.25 11.25 10.59 11.25 11V17C11.25 17.41 11.59 17.75 12 17.75Z" fill="currentColor"/><path d="M12 7C12.55 7 13 7.45 13 8C13 8.55 12.55 9 12 9C11.45 9 11 8.55 11 8C11 7.45 11.45 7 12 7Z" fill="currentColor"/><path fill-rule="evenodd" clip-rule="evenodd" d="M1.25 12C1.25 6.06 6.06 1.25 12 1.25C17.94 1.25 22.75 6.06 22.75 12C22.75 17.94 17.94 22.75 12 22.75C6.06 22.75 1.25 17.94 1.25 12ZM12 2.75C6.89 2.75 2.75 6.89 2.75 12C2.75 17.11 6.89 21.25 12 21.25C17.11 21.25 21.25 17.11 21.25 12C21.25 6.89 17.11 2.75 12 2.75Z" fill="currentColor"/></svg>
